<?xml version="1.0" encoding="iso-8859-1"?>
<!-- Generator: Adobe Illustrator 19.0.0, SVG Export Plug-In . SVG Version: 6.00 Build 0)  -->
<svg version="1.1" id="Capa_1" xmlns="http://www.w3.org/2000/svg" xmlns:xlink="http://www.w3.org/1999/xlink" x="0px" y="0px"
	 viewBox="0 0 512 512" style="enable-background:new 0 0 512 512;" xml:space="preserve">
<path style="fill:#D87844;" d="M486.323,25.701c-20.942-20.942-54.897-20.942-75.84,0c-20.942,20.942-20.942,54.897,0,75.839
	s54.897,20.942,75.84,0C507.265,80.598,507.265,46.644,486.323,25.701z M462.546,77.763c-7.81,7.81-20.474,7.81-28.285,0
	c-7.81-7.811-7.81-20.474,0-28.285s20.474-7.81,28.285,0C470.356,57.29,470.356,69.953,462.546,77.763z"/>
<path style="fill:#FFA33B;" d="M279.536,458.741c-4.148-17.194,0.486-36.075,13.908-49.498L410.528,292.16
	c52.642-52.642,52.642-137.991,0-190.633l0,0c-52.642-52.642-137.991-52.642-190.633,0L102.812,218.61
	c-13.423,13.423-32.304,18.056-49.498,13.908L279.536,458.741z"/>
<path style="fill:#FFC44D;" d="M56.366,235.57c-10.607-10.607-27.804-10.607-38.411,0l0,0c-10.607,10.607-10.607,27.804,0,38.411
	L238.01,494.036c10.607,10.607,27.804,10.607,38.411,0l0,0c10.607-10.607,10.607-27.804,0-38.411L56.366,235.57z"/>
<path d="M173.46,338.522c-3.905-3.905-10.237-3.905-14.143,0c-3.905,3.905-3.905,10.237,0,14.143l0.229,0.229
	c1.953,1.953,4.512,2.929,7.071,2.929c2.559,0,5.119-0.976,7.071-2.929c3.905-3.905,3.905-10.237,0-14.143L173.46,338.522z"/>
<path d="M353.686,106.693c-18.172-7.907-38.122-10.216-57.695-6.676c-20.043,3.625-38.278,13.18-52.73,27.632
	c-3.905,3.905-3.905,10.237,0,14.143c1.953,1.953,4.512,2.929,7.071,2.929c2.559,0,5.119-0.976,7.071-2.929
	c23.356-23.357,58.017-29.938,88.302-16.759c5.063,2.204,10.956-0.114,13.159-5.18C361.07,114.788,358.751,108.896,353.686,106.693z
	"/>
<path d="M384.156,127.4c-3.918-3.893-10.25-3.872-14.142,0.045c-3.893,3.918-3.872,10.25,0.045,14.142l0.181,0.181
	c1.955,1.967,4.524,2.952,7.094,2.952c2.548,0,5.098-0.968,7.048-2.906c3.917-3.893,3.938-10.224,0.045-14.142L384.156,127.4z"/>
<path d="M493.395,108.612c24.807-24.808,24.807-65.173,0-89.982c-24.807-24.806-65.172-24.806-89.982,0
	c-14.034,14.034-20.122,33.048-18.277,51.407c-55.019-30.308-125.72-22.173-172.312,24.418L95.741,211.539
	c-10.391,10.391-25.066,14.614-39.389,11.402c-5.732-3.47-12.318-5.326-19.191-5.326c-9.926,0-19.258,3.865-26.277,10.884
	C3.865,235.518,0,244.85,0,254.777c0,9.926,3.865,19.257,10.884,26.277l220.054,220.055c7.245,7.244,16.76,10.866,26.277,10.866
	c9.516,0,19.032-3.623,26.278-10.867c12.266-12.266,14.144-31.044,5.641-45.308c-3.253-14.353,0.968-29.072,11.382-39.485
	l117.083-117.083c46.587-46.588,54.725-117.282,24.424-172.298c2.106,0.208,4.235,0.315,6.379,0.315
	C465.399,127.247,481.376,120.629,493.395,108.612z M403.456,285.088L286.373,402.172c-8.981,8.982-14.831,20.141-17.174,32.09
	l-75.238-75.238c-3.905-3.904-10.237-3.904-14.143,0c-3.905,3.905-3.905,10.237,0,14.143l89.532,89.531
	c6.691,6.691,6.691,17.578,0,24.268c-6.692,6.691-17.578,6.691-24.268,0L25.026,266.91C21.785,263.669,20,259.36,20,254.777
	c0-4.584,1.785-8.893,5.026-12.134c3.241-3.241,7.55-5.026,12.134-5.026c4.583,0,8.893,1.785,12.134,5.026l88.106,88.106
	c3.905,3.905,10.237,3.906,14.143,0c3.905-3.905,3.905-10.237,0-14.142l-73.749-73.749c11.947-2.343,23.107-8.193,32.09-17.174
	l117.083-117.083c23.57-23.571,54.91-36.553,88.245-36.553c32.971,0,63.984,12.707,87.465,35.792
	c0.248,0.257,0.483,0.521,0.737,0.775c0.26,0.26,0.532,0.502,0.795,0.757C452.106,158.089,451.861,236.685,403.456,285.088z
	 M417.599,94.456c-0.256-0.256-0.519-0.503-0.777-0.757c-16.261-17.064-16.025-44.168,0.732-60.925
	c8.506-8.506,19.675-12.757,30.849-12.757c11.17,0,22.344,4.253,30.849,12.757c17.01,17.009,17.01,44.687,0,61.696
	c-8.24,8.24-19.195,12.777-30.849,12.777c-11.282,0-21.902-4.264-30.046-12.014C418.103,94.975,417.856,94.713,417.599,94.456z"/>
<path d="M469.617,84.836c5.666-5.667,8.787-13.2,8.787-21.213c0-8.014-3.121-15.547-8.787-21.213
	c-11.698-11.697-30.731-11.696-42.427,0c-5.667,5.666-8.787,13.2-8.787,21.213s3.121,15.547,8.787,21.213
	c5.849,5.848,13.531,8.772,21.213,8.772S463.768,90.684,469.617,84.836z M438.404,63.621c0-2.671,1.04-5.182,2.929-7.071
	c1.889-1.889,4.4-2.929,7.071-2.929c2.671,0,5.182,1.04,7.071,2.929c1.889,1.889,2.929,4.399,2.929,7.071
	c0,2.671-1.04,5.182-2.929,7.071c-1.889,1.889-4.4,2.929-7.071,2.929c-2.671,0-5.182-1.04-7.071-2.929
	C439.444,68.803,438.404,66.292,438.404,63.621z"/>
<g>
</g>
<g>
</g>
<g>
</g>
<g>
</g>
<g>
</g>
<g>
</g>
<g>
</g>
<g>
</g>
<g>
</g>
<g>
</g>
<g>
</g>
<g>
</g>
<g>
</g>
<g>
</g>
<g>
</g>
</svg>
