<?xml version="1.0" encoding="iso-8859-1"?>
<!-- Generator: Adobe Illustrator 19.0.0, SVG Export Plug-In . SVG Version: 6.00 Build 0)  -->
<svg version="1.1" id="Capa_1" xmlns="http://www.w3.org/2000/svg" xmlns:xlink="http://www.w3.org/1999/xlink" x="0px" y="0px"
	 viewBox="0 0 511.999 511.999" style="enable-background:new 0 0 511.999 511.999;" xml:space="preserve">
<path style="fill:#DA393F;" d="M357.643,501.872L357.643,501.872c-80.084,0-145.005-64.921-145.005-145.005l0,0
	c0-80.084,64.921-145.005,145.005-145.005l0,0c80.084,0,145.005,64.921,145.005,145.005l0,0
	C502.648,436.951,437.727,501.872,357.643,501.872z"/>
<path style="fill:#F75857;" d="M154.992,501.872L154.992,501.872c-80.084,0-145.005-64.921-145.005-145.005l0,0
	c0-80.084,64.921-145.005,145.005-145.005l0,0c80.084,0,145.005,64.921,145.005,145.005l0,0
	C299.996,436.951,235.076,501.872,154.992,501.872z"/>
<path style="fill:#30AA5B;" d="M501.995,114.775c0,0-52.39-94.16-118.926-102.156c-64.853-7.794-80.013,17.773-114.379-2.547
	c-3.583,29.04,15.509,118.374,101.778,128.745C435.978,146.692,446.839,109.118,501.995,114.775z"/>
<path d="M45.41,452.342l-0.094,0.094c-3.905,3.905-3.905,10.237,0,14.143c1.953,1.953,4.512,2.929,7.071,2.929
	c2.559,0,5.119-0.976,7.071-2.929l0.094-0.094c3.905-3.905,3.905-10.237,0-14.143C55.647,448.437,49.315,448.437,45.41,452.342z"/>
<path d="M252.716,386.197c-12.822,42.786-53.009,72.669-97.724,72.669c-5.523,0-10,4.477-10,10s4.477,10,10,10
	c26.773,0,52.187-8.51,73.492-24.611c20.605-15.571,36.014-37.702,43.391-62.317c1.585-5.29-1.418-10.864-6.708-12.45
	C259.879,377.903,254.301,380.907,252.716,386.197z"/>
<path d="M267.087,366.867c5.523,0,10-4.477,10-10s-4.477-10-10-10h-0.103c-5.523,0-10,4.477-10,10s4.477,10,10,10H267.087z"/>
<path d="M467.818,379.473c-5.289-1.586-10.864,1.418-12.45,6.708c-12.822,42.786-53.009,72.669-97.725,72.669
	c-5.523,0-10,4.477-10,10s4.477,10,10,10c26.773,0,52.187-8.51,73.492-24.611c20.605-15.571,36.014-37.702,43.391-62.317
	C476.112,386.632,473.109,381.058,467.818,379.473z"/>
<path d="M469.739,346.851h-0.103c-5.523,0-10,4.477-10,10s4.477,10,10,10h0.103c5.523,0,10-4.477,10-10
	S475.261,346.851,469.739,346.851z"/>
<path d="M402.996,91.775h0.472c5.523,0,10-4.477,10-10s-4.477-10-10-10h-0.472c-5.523,0-10,4.477-10,10
	S397.473,91.775,402.996,91.775z"/>
<path d="M356.907,201.755c-6.243,0-12.435,0.371-18.551,1.099c-37.367-26.457-68.529-79.364-74.55-127.066
	c-1.094-8.67-1.267-16.815-0.595-24.31c4.555,17.095,12.634,35.948,25.679,52.611c20.066,25.632,47.111,40.656,80.386,44.656
	c6.64,0.798,12.777,1.154,18.492,1.154c26.229,0,43.495-7.512,59.054-14.282c16.415-7.143,30.589-13.309,54.154-10.895
	c3.707,0.38,7.32-1.333,9.37-4.445c2.051-3.113,2.201-7.107,0.388-10.364c-2.24-4.027-55.684-98.716-126.471-107.224
	c-31.458-3.779-51.63-0.113-67.838,2.833c-17.645,3.208-27.364,4.975-42.644-4.06c-0.001,0.001-0.001,0.003-0.002,0.004
	c-1.452-0.86-3.136-1.372-4.944-1.398C242.704-0.3,216.154,13.61,192.159,40.318c-38.37,42.705-61.538,108.309-58.266,162.94
	c-10.685,1.461-21.245,4.033-31.493,7.716c-0.268,0.092-0.535,0.192-0.803,0.291c-20.517,7.501-39.758,19.46-56.195,35.896
	c-24.066,24.066-39.259,54.559-43.938,88.182c-4.524,32.518,1.517,66.264,17.012,95.021c2.619,4.862,8.683,6.68,13.547,4.06
	c4.862-2.62,6.68-8.685,4.06-13.547C8.022,368.799,17.671,303.181,59.546,261.307c14.104-14.104,30.579-24.428,48.153-30.979
	c0.092-0.034,0.186-0.059,0.277-0.096c0.042-0.017,0.088-0.035,0.131-0.052c0.551-0.204,1.104-0.405,1.657-0.601
	c4.829-1.499,15.009-2.114,34.121,17.493c17.854,18.314,50.431,18.843,54.087,18.843c5.523,0,10-4.477,10-10c0-5.523-4.477-10-10-10
	c-7.588,0-29.526-2.3-39.765-12.803c-4.123-4.23-8.162-7.891-12.127-11.004c37.525-2.481,75.896,10.581,104.513,39.199
	c52.673,52.673,52.673,138.378,0,191.049c-41.876,41.876-107.495,51.524-159.573,23.461c-4.862-2.62-10.928-0.802-13.547,4.06
	c-2.62,4.862-0.802,10.927,4.06,13.547c22.53,12.14,48.119,18.478,73.783,18.478c7.094,0,14.195-0.484,21.238-1.464
	c29.672-4.129,56.904-16.452,79.435-35.83c28.106,24.13,63.637,37.333,100.918,37.333c85.519,0,155.093-69.574,155.093-155.093
	C512,271.329,442.426,201.755,356.907,201.755z M369.892,85.267c0.783,0.188,1.566,0.277,2.338,0.277c4.512,0,8.6-3.078,9.706-7.657
	c1.294-5.362-2.006-10.762-7.366-12.065c-0.412-0.1-36.071-9.042-72.372-37.978c5.853-0.471,11.691-1.531,17.804-2.642
	c14.885-2.707,33.412-6.075,61.874-2.654c45.085,5.417,84.417,55.944,101.838,81.885c-18.23,1.251-31.721,7.122-44.874,12.845
	c-18.229,7.932-35.444,15.428-67.178,11.609c-27.804-3.342-50.354-15.834-67.023-37.127c-14.482-18.501-21.623-39.742-24.584-56.426
	C322.979,73.672,367.873,84.783,369.892,85.267z M153.847,201.826c-2.8-48.962,18.761-109.819,53.19-148.138
	c13.517-15.045,28.026-25.384,42.23-30.315c-6.135,15.196-7.973,33.778-5.304,54.92c6.007,47.59,33.353,98.143,68.914,129.792
	c-20.793,6.135-40.137,16.629-56.867,30.99C226.743,213.951,190.254,201.542,153.847,201.826z M356.907,491.939
	c-31.877,0-62.281-11.085-86.544-31.372c52.961-58.791,52.966-148.661,0.013-207.458c11.661-9.749,24.736-17.37,38.714-22.656
	c0.214-0.07,0.429-0.136,0.641-0.221c0.182-0.073,0.384-0.153,0.595-0.235c0.277-0.102,0.554-0.201,0.831-0.3
	c4.672-1.571,14.875-2.739,34.482,17.375c17.855,18.314,50.432,18.843,54.087,18.843c5.516,0,9.981-4.467,9.991-9.982
	c0.01-5.516-4.458-9.999-9.974-10.018c-7.619-0.026-29.619-2.378-39.782-12.803c-4.141-4.248-8.198-7.923-12.18-11.045
	c3.025-0.202,6.067-0.31,9.124-0.31c74.49,0,135.092,60.602,135.092,135.09C491.999,431.337,431.397,491.939,356.907,491.939z"/>
<g>
</g>
<g>
</g>
<g>
</g>
<g>
</g>
<g>
</g>
<g>
</g>
<g>
</g>
<g>
</g>
<g>
</g>
<g>
</g>
<g>
</g>
<g>
</g>
<g>
</g>
<g>
</g>
<g>
</g>
</svg>
