<?xml version="1.0" encoding="iso-8859-1"?>
<!-- Generator: Adobe Illustrator 19.0.0, SVG Export Plug-In . SVG Version: 6.00 Build 0)  -->
<svg version="1.1" id="Capa_1" xmlns="http://www.w3.org/2000/svg" xmlns:xlink="http://www.w3.org/1999/xlink" x="0px" y="0px"
	 viewBox="0 0 512 512" style="enable-background:new 0 0 512 512;" xml:space="preserve">
<path style="fill:#FFC44D;" d="M115.683,115.498C47.53,183.651,14.984,270.454,22.654,343.976
	c1.055,15.669,15.094,47.558-3.541,83.072l0,0c-13.646,18.385-12.104,44.511,4.612,61.227s42.842,18.257,61.227,4.611l0,0
	c35.514-18.635,67.403-4.597,83.072-3.541c73.523,7.671,160.325-24.875,228.478-93.028l-0.185,0.185
	c68.153-68.153,100.699-154.955,93.028-228.478c-1.055-15.669-15.094-47.558,3.541-83.072l0,0
	c13.646-18.385,12.105-44.511-4.611-61.227s-42.842-18.257-61.227-4.611l0,0c-35.514,18.635-67.403,4.597-83.072,3.541
	c-73.523-7.671-160.325,24.875-228.478,93.028L115.683,115.498z"/>
<path d="M57.138,512c-14.761,0-29.477-5.642-40.487-16.652c-19.661-19.66-22.205-51.146-6.065-73.584
	c12.387-24.15,7.788-46.548,4.421-62.938c-1.084-5.278-2.022-9.846-2.32-13.984c-3.963-38.291,2.522-80.063,18.754-120.821
	c16.604-41.685,43.205-81.573,76.935-115.365c0.016-0.016,0.031-0.031,0.047-0.047l0.186-0.186c0.012-0.012,0.024-0.024,0.036-0.036
	c33.794-33.736,73.685-60.341,115.376-76.946c40.755-16.232,82.531-22.716,120.818-18.754c4.137,0.297,8.707,1.235,13.986,2.32
	c16.389,3.367,38.787,7.966,62.938-4.421C444.2-5.553,475.686-3.01,495.349,16.651c19.661,19.66,22.204,51.146,6.065,73.584
	c-12.387,24.15-7.788,46.548-4.422,62.938c1.084,5.278,2.022,9.846,2.32,13.984c3.963,38.291-2.522,80.063-18.754,120.821
	c-16.604,41.685-43.205,81.573-76.935,115.365c-0.016,0.016-0.031,0.031-0.047,0.047l-0.186,0.186
	c-0.012,0.012-0.024,0.024-0.036,0.036c-33.794,33.736-73.685,60.341-115.376,76.946c-40.755,16.232-82.527,22.717-120.818,18.754
	c-4.137-0.297-8.707-1.235-13.986-2.32c-16.39-3.366-38.787-7.966-62.938,4.422C80.363,508.515,68.736,511.999,57.138,512z
	 M122.663,122.665C59.526,185.851,25.02,270.243,32.605,342.938c0.013,0.122,0.022,0.244,0.031,0.366
	c0.19,2.835,1.015,6.849,1.97,11.497c3.776,18.389,9.484,46.179-6.632,76.896c-0.241,0.458-0.517,0.897-0.825,1.313
	c-10.818,14.575-9.248,35.293,3.651,48.191c12.898,12.899,33.615,14.47,48.191,3.652c0.416-0.309,0.855-0.584,1.313-0.825
	c30.716-16.118,58.506-10.411,76.896-6.634c4.648,0.955,8.661,1.78,11.496,1.97c0.122,0.008,0.244,0.019,0.366,0.032
	c72.689,7.582,157.088-26.923,220.274-90.06c63.137-63.186,97.643-147.578,90.058-220.273c-0.013-0.122-0.022-0.244-0.031-0.366
	c-0.19-2.835-1.015-6.849-1.97-11.497c-3.776-18.389-9.484-46.179,6.632-76.896c0.241-0.458,0.517-0.897,0.825-1.313
	c10.818-14.575,9.248-35.293-3.651-48.191c-12.897-12.899-33.615-14.47-48.191-3.652c-0.416,0.309-0.855,0.584-1.313,0.825
	C400.978,44.09,373.19,38.382,354.8,34.606c-4.648-0.955-8.661-1.78-11.496-1.97c-0.122-0.008-0.244-0.019-0.366-0.032
	C270.246,25.019,185.849,59.527,122.663,122.665z"/>
<path d="M91.553,349.772c-5.06,0-9.401-3.824-9.938-8.966c-5.025-48.169,11.29-102.598,44.76-149.329
	c3.217-4.491,9.463-5.525,13.958-2.308c4.491,3.217,5.524,9.466,2.308,13.958c-30.66,42.808-45.651,92.235-41.126,135.605
	c0.573,5.495-3.417,10.415-8.912,10.987C92.25,349.754,91.899,349.772,91.553,349.772z"/>
<path d="M163.251,173.44c-2.547,0-5.095-0.966-7.045-2.902c-3.922-3.891-3.946-10.225-0.056-14.147l0.269-0.269
	c3.939-3.876,10.271-3.825,14.148,0.111c3.875,3.937,3.825,10.27-0.111,14.147l-0.103,0.102
	C168.397,172.454,165.824,173.44,163.251,173.44z"/>
<path d="M154.601,420.118c-2.547,0-5.095-0.966-7.045-2.902c-3.922-3.891-3.946-10.225-0.056-14.147l0.269-0.269
	c3.939-3.876,10.272-3.825,14.148,0.111c3.875,3.937,3.825,10.27-0.111,14.147l-0.103,0.102
	C159.748,419.131,157.175,420.118,154.601,420.118z"/>
<path d="M222.427,440.625c-2.561,0-5.12-0.976-7.073-2.93c-3.906-3.906-3.906-10.24,0-14.148l0.157-0.157
	c3.889-3.921,10.224-3.947,14.147-0.056c3.922,3.891,3.946,10.225,0.056,14.147l-0.212,0.214
	C227.547,439.649,224.988,440.625,222.427,440.625z"/>
<path d="M204.31,404.698c-2.545,0-5.089-0.96-7.032-2.889c-3.922-3.891-3.972-10.199-0.081-14.122l0.135-0.135
	c3.891-3.922,10.25-3.972,14.172-0.082c3.922,3.891,3.972,10.199,0.081,14.122l-0.135,0.135
	C209.486,403.705,206.898,404.698,204.31,404.698z"/>
<path d="M252.511,400.01c-2.545,0-5.089-0.96-7.032-2.889c-3.922-3.891-3.972-10.199-0.081-14.122l0.135-0.135
	c3.891-3.922,10.251-3.972,14.172-0.082c3.922,3.891,3.972,10.199,0.081,14.122l-0.135,0.135
	C257.689,399.018,255.099,400.01,252.511,400.01z"/>
<path d="M297.489,407.27c-2.547,0-5.095-0.966-7.045-2.902c-3.922-3.891-3.946-10.225-0.056-14.147l0.241-0.241
	c3.92-3.891,10.255-3.866,14.147,0.055c3.891,3.922,3.866,10.255-0.056,14.147l-0.13,0.13
	C302.636,406.283,300.062,407.27,297.489,407.27z"/>
<g>
</g>
<g>
</g>
<g>
</g>
<g>
</g>
<g>
</g>
<g>
</g>
<g>
</g>
<g>
</g>
<g>
</g>
<g>
</g>
<g>
</g>
<g>
</g>
<g>
</g>
<g>
</g>
<g>
</g>
</svg>
