<?xml version="1.0" encoding="iso-8859-1"?>
<!-- Generator: Adobe Illustrator 19.0.0, SVG Export Plug-In . SVG Version: 6.00 Build 0)  -->
<svg version="1.1" id="Capa_1" xmlns="http://www.w3.org/2000/svg" xmlns:xlink="http://www.w3.org/1999/xlink" x="0px" y="0px"
	 viewBox="0 0 512.001 512.001" style="enable-background:new 0 0 512.001 512.001;" xml:space="preserve">
<path style="fill:#FFFFFF;" d="M436,112.044L226,346.252L16,112.044C16,112.044,436,112.044,436,112.044z"/>
<polygon style="fill:#F75857;" points="73.348,176.002 226,346.252 378.653,176.002 "/>
<circle style="fill:#A0E070;" cx="435.999" cy="111.79" r="60"/>
<path style="fill:#308EE2;" d="M127,502.002l99-60.513l99,60.513H127z"/>
<path d="M318.078,186.002h0.076c5.523,0,9.962-4.477,9.962-10s-4.515-10-10.038-10s-10,4.477-10,10S312.555,186.002,318.078,186.002
	z"/>
<path d="M436,41.793c-35.289,0-64.546,26.253-69.306,60.251H138.46L89.243,5.462c-2.508-4.922-8.531-6.877-13.45-4.369
	c-4.92,2.507-6.877,8.529-4.369,13.45l44.589,87.501H16c-3.946,0-7.522,2.32-9.131,5.923c-1.608,3.603-0.948,7.815,1.686,10.752
	l207.433,231.345v85.825l-94.203,57.58c-3.822,2.336-5.625,6.929-4.411,11.241c1.213,4.312,5.146,7.291,9.626,7.291h198
	c4.479,0,8.413-2.979,9.626-7.291c1.214-4.312-0.588-8.905-4.411-11.241l-94.228-57.596v-85.781l161.369-179.971
	c11.083,7.367,24.368,11.672,38.644,11.672c38.598,0,70-31.402,70-70S474.598,41.793,436,41.793z M477.682,139.366l-17.544-17.561
	l24.852,0.012C483.688,128.19,481.163,134.121,477.682,139.366z M395.966,141.714c-4.295-5.733-7.387-12.416-8.905-19.67h26.542
	L395.966,141.714z M394.318,84.22l17.544,17.561l-24.852-0.012C388.313,95.396,390.837,89.465,394.318,84.22z M446,62.799
	c6.374,1.299,12.307,3.82,17.553,7.299L446,87.651V62.799z M426,87.634l-17.532-17.549c5.241-3.471,11.167-5.988,17.532-7.286
	V87.634z M446,135.952l17.532,17.549c-5.241,3.471-11.167,5.988-17.532,7.286V135.952z M460.131,101.805l17.564-17.565
	c3.483,5.252,6.006,11.193,7.303,17.577L460.131,101.805z M366.758,122.044c1.933,13.115,7.518,25.052,15.683,34.754L226,331.272
	L95.745,186.002h63.052l63.294,124.207c1.766,3.466,5.277,5.461,8.918,5.461c1.527,0,3.078-0.351,4.532-1.092
	c4.92-2.507,6.877-8.529,4.369-13.45l-58.666-115.126h107.09c5.523,0,10-4.477,10-10s-4.477-10-10-10H171.052l-22.4-43.959h218.106
	V122.044z M126.205,122.044l22.4,43.959H80.032c-0.697,0-1.376,0.072-2.033,0.208l-39.601-44.166L126.205,122.044L126.205,122.044z
	 M162.535,492.002L226,453.21l63.465,38.792H162.535z M426,138.176v22.611c-5.399-1.1-10.478-3.084-15.095-5.775L426,138.176z"/>
<g>
</g>
<g>
</g>
<g>
</g>
<g>
</g>
<g>
</g>
<g>
</g>
<g>
</g>
<g>
</g>
<g>
</g>
<g>
</g>
<g>
</g>
<g>
</g>
<g>
</g>
<g>
</g>
<g>
</g>
</svg>
