<?xml version="1.0" encoding="iso-8859-1"?>
<!-- Generator: Adobe Illustrator 19.0.0, SVG Export Plug-In . SVG Version: 6.00 Build 0)  -->
<svg version="1.1" id="Capa_1" xmlns="http://www.w3.org/2000/svg" xmlns:xlink="http://www.w3.org/1999/xlink" x="0px" y="0px"
	 viewBox="0 0 512 512" style="enable-background:new 0 0 512 512;" xml:space="preserve">
<path style="fill:#FFC44D;" d="M399.58,22.101h-36.077h-2.56V76.51h0.285l38.187,146.777c10.447,40.157,4.117,81.668-17.825,116.884
	c-21.494,34.495-55.063,57.94-94.526,66.015c-20.176,4.128-41.626,4.131-61.816-0.001c-39.461-8.075-73.03-31.519-94.523-66.013
	c-21.942-35.213-28.273-76.721-17.829-116.877l38.18-146.785h-0.019V22.101h-38.693H48.637H12.56H10V76.51h57.79L34.888,203.003
	c-8.09,31.102-9.621,62.873-4.553,94.429c4.889,30.436,15.649,59.157,31.98,85.365c16.106,25.848,36.753,47.824,61.368,65.318
	c25.646,18.226,54.381,30.687,85.406,37.036c15.401,3.151,31.237,4.749,47.069,4.749c15.835,0,31.671-1.598,47.066-4.749
	c31.025-6.348,59.761-18.809,85.408-37.036c24.616-17.494,45.264-39.471,61.37-65.321c16.33-26.21,27.09-54.932,31.978-85.37
	c5.068-31.559,3.534-63.33-4.558-94.433L444.515,76.509H502V22.101h-38.693H399.58z"/>
<path d="M81.678,32.1h-0.145c-5.522,0-10-4.477-10-10s4.478-10,10-10h0.145c5.522,0,10,4.477,10,10S87.2,32.1,81.678,32.1z"/>
<path d="M432.62,32.1h-0.145c-5.522,0-10-4.477-10-10s4.478-10,10-10h0.145c5.522,0,10,4.477,10,10S438.143,32.1,432.62,32.1z"/>
<path d="M256.157,499.9c-16.504,0-33.014-1.666-49.073-4.952c-32.397-6.63-62.407-19.645-89.194-38.682
	c-25.699-18.265-47.253-41.205-64.062-68.181c-17.038-27.341-28.265-57.308-33.366-89.067c-5.29-32.933-3.692-66.084,4.748-98.533
	L54.856,86.509H10c-5.522,0-10-4.477-10-10V22.101c0-5.523,4.478-10,10-10h38.637c5.522,0,10,4.477,10,10s-4.478,10-10,10H20V66.51
	h47.79c3.096,0,6.018,1.434,7.911,3.883s2.546,5.638,1.767,8.634L44.565,205.521c-7.738,29.753-9.205,60.144-4.357,90.326
	c4.678,29.117,14.972,56.592,30.595,81.663c15.401,24.719,35.142,45.731,58.673,62.456c24.504,17.415,51.965,29.321,81.618,35.39
	c29.487,6.033,60.654,6.031,90.124,0c29.655-6.067,57.115-17.975,81.62-35.39c23.532-16.725,43.273-37.738,58.676-62.458
	c15.624-25.077,25.916-52.553,30.592-81.667c4.847-30.182,3.379-60.573-4.362-90.331L434.837,79.027
	c-0.779-2.997-0.127-6.185,1.767-8.634c1.894-2.45,4.815-3.884,7.911-3.884H492V32.101h-28.692c-5.522,0-10-4.477-10-10
	s4.478-10,10-10H502c5.522,0,10,4.477,10,10V76.51c0,5.523-4.478,10-10,10h-44.551l29.649,113.964
	c8.443,32.453,10.042,65.605,4.753,98.537c-5.099,31.756-16.324,61.725-33.363,89.073c-16.81,26.978-38.363,49.918-64.064,68.184
	c-26.787,19.038-56.798,32.053-89.196,38.682C289.175,498.234,272.665,499.9,256.157,499.9z"/>
<path d="M256.158,419.286c-11.075,0-22.148-1.102-32.915-3.305c-42.176-8.631-78.047-33.676-101.005-70.522
	c-23.407-37.564-30.162-81.844-19.02-124.682l37.839-145.475V32.101h-28.693c-5.522,0-10-4.477-10-10s4.478-10,10-10h38.693
	c5.522,0,10,4.477,10,10v53.84c0.06,1.026-0.038,2.067-0.304,3.085l-38.18,146.785c-9.747,37.475-3.838,76.211,16.639,109.071
	c20.027,32.143,51.294,53.985,88.04,61.505c18.908,3.869,38.897,3.869,57.806,0.001c36.747-7.52,68.015-29.363,88.044-61.507
	c20.477-32.865,26.384-71.603,16.635-109.078L352.123,81.227c-0.753-1.405-1.181-3.012-1.181-4.718V22.101c0-5.523,4.478-10,10-10
	h38.638c5.522,0,10,4.477,10,10s-4.478,10-10,10h-28.638V74.13l38.15,146.638c11.145,42.839,4.392,87.121-19.016,124.69
	c-22.96,36.848-58.833,61.894-101.009,70.524C278.304,418.185,267.229,419.286,256.158,419.286z"/>
<g>
	<circle style="fill:#023989;" cx="256.16" cy="449.59" r="16.12"/>
	<circle style="fill:#023989;" cx="149" cy="415.6" r="16.12"/>
	<circle style="fill:#023989;" cx="438.61" cy="309.83" r="16.12"/>
	<circle style="fill:#023989;" cx="73.96" cy="309.83" r="16.12"/>
	<circle style="fill:#023989;" cx="83.36" cy="173.17" r="16.12"/>
	<circle style="fill:#023989;" cx="425.43" cy="173.17" r="16.12"/>
	<circle style="fill:#023989;" cx="363.31" cy="415.6" r="16.12"/>
</g>
<path d="M256.156,475.712c-14.402,0-26.12-11.718-26.12-26.121s11.718-26.121,26.12-26.121c14.403,0,26.121,11.718,26.121,26.121
	C282.277,463.994,270.56,475.712,256.156,475.712z M256.156,443.47c-3.375,0-6.12,2.746-6.12,6.121s2.745,6.121,6.12,6.121
	s6.121-2.746,6.121-6.121S259.531,443.47,256.156,443.47z"/>
<path d="M149.001,441.721c-14.402,0-26.12-11.718-26.12-26.121c0-14.403,11.718-26.121,26.12-26.121
	c14.403,0,26.121,11.718,26.121,26.121C175.122,430.003,163.404,441.721,149.001,441.721z M149.001,409.479
	c-3.375,0-6.12,2.746-6.12,6.121s2.745,6.121,6.12,6.121s6.121-2.746,6.121-6.121S152.376,409.479,149.001,409.479z"/>
<path d="M438.61,335.951c-14.402,0-26.12-11.718-26.12-26.121c0-14.403,11.718-26.121,26.12-26.121
	c14.403,0,26.121,11.718,26.121,26.121S453.014,335.951,438.61,335.951z M438.61,303.709c-3.375,0-6.12,2.746-6.12,6.121
	s2.745,6.121,6.12,6.121s6.121-2.746,6.121-6.121S441.985,303.709,438.61,303.709z"/>
<path d="M73.96,335.951c-14.403,0-26.121-11.718-26.121-26.121c0-14.403,11.718-26.121,26.121-26.121s26.121,11.718,26.121,26.121
	S88.363,335.951,73.96,335.951z M73.96,303.709c-3.375,0-6.121,2.746-6.121,6.121s2.746,6.121,6.121,6.121s6.121-2.746,6.121-6.121
	S77.335,303.709,73.96,303.709z"/>
<path d="M83.363,199.294c-14.402,0-26.12-11.718-26.12-26.121s11.718-26.121,26.12-26.121c14.403,0,26.121,11.718,26.121,26.121
	S97.767,199.294,83.363,199.294z M83.363,167.052c-3.375,0-6.12,2.746-6.12,6.121s2.745,6.121,6.12,6.121s6.121-2.746,6.121-6.121
	S86.738,167.052,83.363,167.052z"/>
<path d="M425.434,199.294c-14.403,0-26.121-11.718-26.121-26.121s11.718-26.121,26.121-26.121c14.402,0,26.12,11.718,26.12,26.121
	S439.836,199.294,425.434,199.294z M425.434,167.052c-3.375,0-6.121,2.746-6.121,6.121s2.746,6.121,6.121,6.121
	s6.12-2.746,6.12-6.121S428.809,167.052,425.434,167.052z"/>
<path d="M363.312,441.721c-14.402,0-26.12-11.718-26.12-26.121c0-14.403,11.718-26.121,26.12-26.121
	c14.403,0,26.121,11.718,26.121,26.121C389.433,430.003,377.715,441.721,363.312,441.721z M363.312,409.479
	c-3.375,0-6.12,2.746-6.12,6.121s2.745,6.121,6.12,6.121s6.121-2.746,6.121-6.121S366.687,409.479,363.312,409.479z"/>
<g>
</g>
<g>
</g>
<g>
</g>
<g>
</g>
<g>
</g>
<g>
</g>
<g>
</g>
<g>
</g>
<g>
</g>
<g>
</g>
<g>
</g>
<g>
</g>
<g>
</g>
<g>
</g>
<g>
</g>
</svg>
