<?xml version="1.0" encoding="iso-8859-1"?>
<!-- Generator: Adobe Illustrator 19.0.0, SVG Export Plug-In . SVG Version: 6.00 Build 0)  -->
<svg version="1.1" id="Capa_1" xmlns="http://www.w3.org/2000/svg" xmlns:xlink="http://www.w3.org/1999/xlink" x="0px" y="0px"
	 viewBox="0 0 512.002 512.002" style="enable-background:new 0 0 512.002 512.002;" xml:space="preserve">
<path style="fill:#FFC44D;" d="M375.5,187.371h65.869c-36.458,42.831-80.22,121.77-80.22,196.677h78.317
	c0-71.411,26.078-147.671,62.533-199.335v-60.665H393.082L375.5,187.371z"/>
<path style="fill:#A0E070;" d="M120,187.361v-63.313H10v80.46h48.929v-17.137h87.752c-36.458,42.831-80.22,121.77-80.22,196.677
	h78.317c0-71.411,26.078-145.023,62.533-196.687H120z"/>
<path style="fill:#F75857;" d="M226.067,76.048H120v111.313h87.312v-23.728h101.107c-50.258,59.304-110.585,168.605-110.585,272.322
	h107.963c0-98.876,35.949-204.467,86.204-276.003V76.048H286.184H226.067z"/>
<path d="M502,114.048H402v-38c0-5.523-4.478-10-10-10H286.185c-5.522,0-10,4.477-10,10s4.478,10,10,10H382v70.764
	c-51.372,74.408-83.884,176.336-86.085,269.142h-87.887c3.586-92.825,56.028-194.508,108.019-255.856
	c2.519-2.972,3.082-7.135,1.444-10.669s-5.178-5.796-9.073-5.796H207.312c-5.522,0-10,4.477-10,10v13.728H130V86.048h96.067
	c5.522,0,10-4.477,10-10s-4.478-10-10-10H120c-5.522,0-10,4.477-10,10v38H10c-5.522,0-10,4.477-10,10v80.46c0,5.523,4.478,10,10,10
	h48.93c5.522,0,10-4.477,10-10v-7.137h57.051c-16.016,21.565-30.675,46.585-42.201,72.208
	c-17.872,39.73-27.318,79.313-27.318,114.469c0,5.523,4.478,10,10,10h78.317c5.522,0,10-4.477,10-10
	c0-65.805,22.327-136.733,59.726-189.735c0.012-0.016,0.02-0.034,0.032-0.05c1.716-1.795,2.776-4.223,2.776-6.903v-13.728h70.228
	c-23.712,30.977-45.503,67.72-62.387,105.418c-24.415,54.514-37.319,108.771-37.319,156.903c0,5.523,4.478,10,10,10h107.963
	c5.522,0,10-4.477,10-10c0-80.052,24.177-168.271,64.351-238.583h40.522c-16.016,21.565-30.675,46.585-42.201,72.208
	c-17.872,39.73-27.318,79.313-27.318,114.469c0,5.523,4.478,10,10,10h78.317c5.522,0,10-4.477,10-10
	c0-66.333,23.261-140.505,60.704-193.57c1.19-1.687,1.829-3.701,1.829-5.765v-60.665C512,118.525,507.522,114.048,502,114.048z
	 M58.93,177.371c-5.522,0-10,4.477-10,10v7.137H20v-60.46h90v43.323H58.93z M134.938,374.048H76.733
	c3.432-63.843,38.758-133.11,74.636-176.688h37.135C156.422,248.826,136.882,313.053,134.938,374.048z M492,181.572
	c-36.776,53.38-60.208,125.955-62.369,192.477h-58.209c3.525-65.579,40.702-136.892,77.563-180.195
	c2.527-2.969,3.098-7.137,1.463-10.676c-1.636-3.54-5.179-5.806-9.078-5.806h-49.041c2.569-3.958,5.179-7.863,7.854-11.671
	c1.183-1.684,1.817-3.691,1.817-5.749v-25.903h90L492,181.572L492,181.572z"/>
<path d="M256,86.048h0.127c5.522,0,10-4.477,10-10s-4.478-10-10-10H256c-5.522,0-10,4.477-10,10S250.478,86.048,256,86.048z"/>
<g>
</g>
<g>
</g>
<g>
</g>
<g>
</g>
<g>
</g>
<g>
</g>
<g>
</g>
<g>
</g>
<g>
</g>
<g>
</g>
<g>
</g>
<g>
</g>
<g>
</g>
<g>
</g>
<g>
</g>
</svg>
